<?xml version="1.0" encoding="UTF-8" standalone="no"?>
<!DOCTYPE svg PUBLIC "-//W3C//DTD SVG 1.1//EN"
 "http://www.w3.org/Graphics/SVG/1.1/DTD/svg11.dtd">
<!-- Generated by graphviz version 2.36.0 (20140111.2315)
 -->
<!-- Title: Zotlabs\Storage\BasicAuth Pages: 1 -->
<svg width="176pt" height="96pt"
 viewBox="0.00 0.00 176.00 96.00" xmlns="http://www.w3.org/2000/svg" xmlns:xlink="http://www.w3.org/1999/xlink">
<g id="graph0" class="graph" transform="scale(1 1) rotate(0) translate(4 92)">
<title>Zotlabs\Storage\BasicAuth</title>
<polygon fill="white" stroke="none" points="-4,4 -4,-92 172,-92 172,4 -4,4"/>
<!-- Node1 -->
<g id="node1" class="node"><title>Node1</title>
<polygon fill="#bfbfbf" stroke="black" points="0,-0.5 0,-19.5 134,-19.5 134,-0.5 0,-0.5"/>
<text text-anchor="middle" x="67" y="-7.5" font-family="Helvetica,sans-Serif" font-size="10.00">Zotlabs\Storage\BasicAuth</text>
</g>
<!-- Node2 -->
<g id="node2" class="node"><title>Node2</title>
<polygon fill="white" stroke="#bfbfbf" points="0,-62.5 0,-81.5 42,-81.5 42,-62.5 0,-62.5"/>
<text text-anchor="middle" x="21" y="-69.5" font-family="Helvetica,sans-Serif" font-size="10.00">Sabre</text>
</g>
<!-- Node2&#45;&gt;Node1 -->
<g id="edge1" class="edge"><title>Node2&#45;&gt;Node1</title>
<path fill="none" stroke="midnightblue" d="M33.8818,-54.1977C42.5161,-42.9356 53.5264,-28.5743 60.4215,-19.5806"/>
<polygon fill="midnightblue" stroke="midnightblue" points="30.8974,-52.3379 27.5907,-62.4035 36.4527,-56.5969 30.8974,-52.3379"/>
</g>
<!-- Node3 -->
<g id="node3" class="node"><title>Node3</title>
<polygon fill="white" stroke="#bfbfbf" points="60,-57 60,-87 168,-87 168,-57 60,-57"/>
<text text-anchor="start" x="68" y="-75" font-family="Helvetica,sans-Serif" font-size="10.00">DAV::Auth::Backend</text>
<text text-anchor="middle" x="114" y="-64" font-family="Helvetica,sans-Serif" font-size="10.00">::AbstractBasic</text>
</g>
<!-- Node3&#45;&gt;Node1 -->
<g id="edge2" class="edge"><title>Node3&#45;&gt;Node1</title>
<path fill="none" stroke="midnightblue" d="M96.5462,-48.7186C88.6524,-38.6414 79.782,-27.3175 73.8389,-19.7305"/>
<polygon fill="midnightblue" stroke="midnightblue" points="93.9397,-51.0669 102.862,-56.7808 99.4503,-46.7502 93.9397,-51.0669"/>
</g>
</g>
</svg>
