<?xml version="1.0" encoding="UTF-8" standalone="no"?>
<!DOCTYPE svg PUBLIC "-//W3C//DTD SVG 1.1//EN"
 "http://www.w3.org/Graphics/SVG/1.1/DTD/svg11.dtd">
<!-- Generated by graphviz version 2.36.0 (20140111.2315)
 -->
<!-- Title: Zotlabs\Storage\Browser Pages: 1 -->
<svg width="181pt" height="84pt"
 viewBox="0.00 0.00 181.00 84.00" xmlns="http://www.w3.org/2000/svg" xmlns:xlink="http://www.w3.org/1999/xlink">
<g id="graph0" class="graph" transform="scale(1 1) rotate(0) translate(4 80)">
<title>Zotlabs\Storage\Browser</title>
<polygon fill="white" stroke="none" points="-4,4 -4,-80 177,-80 177,4 -4,4"/>
<!-- Node1 -->
<g id="node1" class="node"><title>Node1</title>
<polygon fill="#bfbfbf" stroke="black" points="6.5,-0.5 6.5,-19.5 131.5,-19.5 131.5,-0.5 6.5,-0.5"/>
<text text-anchor="middle" x="69" y="-7.5" font-family="Helvetica,sans-Serif" font-size="10.00">Zotlabs\Storage\Browser</text>
</g>
<!-- Node2 -->
<g id="node2" class="node"><title>Node2</title>
<polygon fill="white" stroke="#bfbfbf" points="0,-56.5 0,-75.5 42,-75.5 42,-56.5 0,-56.5"/>
<text text-anchor="middle" x="21" y="-63.5" font-family="Helvetica,sans-Serif" font-size="10.00">Sabre</text>
</g>
<!-- Node2&#45;&gt;Node1 -->
<g id="edge1" class="edge"><title>Node2&#45;&gt;Node1</title>
<path fill="none" stroke="midnightblue" d="M35.7277,-48.4314C44.1401,-38.9673 54.3487,-27.4827 61.2213,-19.7511"/>
<polygon fill="midnightblue" stroke="midnightblue" points="32.954,-46.2836 28.9262,-56.083 38.1858,-50.9342 32.954,-46.2836"/>
</g>
<!-- Node3 -->
<g id="node3" class="node"><title>Node3</title>
<polygon fill="white" stroke="#bfbfbf" points="60.5,-56.5 60.5,-75.5 173.5,-75.5 173.5,-56.5 60.5,-56.5"/>
<text text-anchor="middle" x="117" y="-63.5" font-family="Helvetica,sans-Serif" font-size="10.00">DAV::Browser::Plugin</text>
</g>
<!-- Node3&#45;&gt;Node1 -->
<g id="edge2" class="edge"><title>Node3&#45;&gt;Node1</title>
<path fill="none" stroke="midnightblue" d="M102.272,-48.4314C93.8599,-38.9673 83.6513,-27.4827 76.7787,-19.7511"/>
<polygon fill="midnightblue" stroke="midnightblue" points="99.8142,-50.9342 109.074,-56.083 105.046,-46.2836 99.8142,-50.9342"/>
</g>
</g>
</svg>
