<?xml version="1.0" encoding="UTF-8" standalone="no"?>
<!DOCTYPE svg PUBLIC "-//W3C//DTD SVG 1.1//EN"
 "http://www.w3.org/Graphics/SVG/1.1/DTD/svg11.dtd">
<!-- Generated by graphviz version 2.36.0 (20140111.2315)
 -->
<!-- Title: Zotlabs\Storage\Directory Pages: 1 -->
<svg width="452pt" height="84pt"
 viewBox="0.00 0.00 452.00 84.00" xmlns="http://www.w3.org/2000/svg" xmlns:xlink="http://www.w3.org/1999/xlink">
<g id="graph0" class="graph" transform="scale(1 1) rotate(0) translate(4 80)">
<title>Zotlabs\Storage\Directory</title>
<polygon fill="white" stroke="none" points="-4,4 -4,-80 448,-80 448,4 -4,4"/>
<!-- Node1 -->
<g id="node1" class="node"><title>Node1</title>
<polygon fill="#bfbfbf" stroke="black" points="30,-0.5 30,-19.5 158,-19.5 158,-0.5 30,-0.5"/>
<text text-anchor="middle" x="94" y="-7.5" font-family="Helvetica,sans-Serif" font-size="10.00">Zotlabs\Storage\Directory</text>
</g>
<!-- Node2 -->
<g id="node2" class="node"><title>Node2</title>
<polygon fill="white" stroke="#bfbfbf" points="0,-56.5 0,-75.5 42,-75.5 42,-56.5 0,-56.5"/>
<text text-anchor="middle" x="21" y="-63.5" font-family="Helvetica,sans-Serif" font-size="10.00">Sabre</text>
</g>
<!-- Node2&#45;&gt;Node1 -->
<g id="edge1" class="edge"><title>Node2&#45;&gt;Node1</title>
<path fill="none" stroke="midnightblue" d="M30.229,-48.9567C41.3199,-39.3231 58.1309,-27.4484 72.2254,-19.5732"/>
<polygon fill="midnightblue" stroke="midnightblue" points="27.5649,-46.6598 22.7218,-56.083 32.3842,-51.7367 27.5649,-46.6598"/>
</g>
<!-- Node2&#45;&gt;Node1 -->
<g id="edge2" class="edge"><title>Node2&#45;&gt;Node1</title>
<path fill="none" stroke="midnightblue" d="M41.1416,-50.1008C54.2793,-40.3824 70.9821,-28.0269 82.0579,-19.8339"/>
<polygon fill="midnightblue" stroke="midnightblue" points="38.6867,-47.5631 32.7287,-56.324 42.8497,-53.1907 38.6867,-47.5631"/>
</g>
<!-- Node2&#45;&gt;Node1 -->
<g id="edge3" class="edge"><title>Node2&#45;&gt;Node1</title>
<path fill="none" stroke="midnightblue" d="M50.8879,-51.6446C67.0742,-41.6474 84.6254,-28.2646 92.537,-19.6367"/>
<polygon fill="midnightblue" stroke="midnightblue" points="48.9588,-48.7185 42.1058,-56.7986 52.5018,-54.7556 48.9588,-48.7185"/>
</g>
<!-- Node3 -->
<g id="node3" class="node"><title>Node3</title>
<polygon fill="white" stroke="#bfbfbf" points="60.5,-56.5 60.5,-75.5 127.5,-75.5 127.5,-56.5 60.5,-56.5"/>
<text text-anchor="middle" x="94" y="-63.5" font-family="Helvetica,sans-Serif" font-size="10.00">DAV::Node</text>
</g>
<!-- Node3&#45;&gt;Node1 -->
<g id="edge4" class="edge"><title>Node3&#45;&gt;Node1</title>
<path fill="none" stroke="midnightblue" d="M94,-45.8045C94,-36.9102 94,-26.7798 94,-19.7511"/>
<polygon fill="midnightblue" stroke="midnightblue" points="90.5001,-46.083 94,-56.083 97.5001,-46.083 90.5001,-46.083"/>
</g>
<!-- Node4 -->
<g id="node4" class="node"><title>Node4</title>
<polygon fill="white" stroke="#bfbfbf" points="146,-56.5 146,-75.5 236,-75.5 236,-56.5 146,-56.5"/>
<text text-anchor="middle" x="191" y="-63.5" font-family="Helvetica,sans-Serif" font-size="10.00">DAV::ICollection</text>
</g>
<!-- Node4&#45;&gt;Node1 -->
<g id="edge5" class="edge"><title>Node4&#45;&gt;Node1</title>
<path fill="none" stroke="midnightblue" d="M166.665,-51.4526C148.757,-41.4835 124.946,-28.2279 109.546,-19.6545"/>
<polygon fill="midnightblue" stroke="midnightblue" points="164.975,-54.5179 175.415,-56.324 168.38,-48.4018 164.975,-54.5179"/>
</g>
<!-- Node5 -->
<g id="node5" class="node"><title>Node5</title>
<polygon fill="white" stroke="#bfbfbf" points="254.5,-56.5 254.5,-75.5 327.5,-75.5 327.5,-56.5 254.5,-56.5"/>
<text text-anchor="middle" x="291" y="-63.5" font-family="Helvetica,sans-Serif" font-size="10.00">DAV::IQuota</text>
</g>
<!-- Node5&#45;&gt;Node1 -->
<g id="edge6" class="edge"><title>Node5&#45;&gt;Node1</title>
<path fill="none" stroke="midnightblue" d="M249.771,-53.6986C212.591,-43.507 158.729,-28.7429 125.069,-19.5164"/>
<polygon fill="midnightblue" stroke="midnightblue" points="249.215,-57.1754 259.785,-56.4435 251.066,-50.4244 249.215,-57.1754"/>
</g>
<!-- Node6 -->
<g id="node6" class="node"><title>Node6</title>
<polygon fill="white" stroke="#bfbfbf" points="346,-56.5 346,-75.5 444,-75.5 444,-56.5 346,-56.5"/>
<text text-anchor="middle" x="395" y="-63.5" font-family="Helvetica,sans-Serif" font-size="10.00">DAV::IMoveTarget</text>
</g>
<!-- Node6&#45;&gt;Node1 -->
<g id="edge7" class="edge"><title>Node6&#45;&gt;Node1</title>
<path fill="none" stroke="midnightblue" d="M337.387,-54.6642C280.504,-44.4592 194.548,-29.0386 141.471,-19.5164"/>
<polygon fill="midnightblue" stroke="midnightblue" points="336.845,-58.1226 347.306,-56.4435 338.081,-51.2326 336.845,-58.1226"/>
</g>
</g>
</svg>
