<?xml version="1.0" encoding="UTF-8" standalone="no"?>
<!DOCTYPE svg PUBLIC "-//W3C//DTD SVG 1.1//EN"
 "http://www.w3.org/Graphics/SVG/1.1/DTD/svg11.dtd">
<!-- Generated by graphviz version 2.36.0 (20140111.2315)
 -->
<!-- Title: photo_driver Pages: 1 -->
<svg width="162pt" height="84pt"
 viewBox="0.00 0.00 162.00 84.00" xmlns="http://www.w3.org/2000/svg" xmlns:xlink="http://www.w3.org/1999/xlink">
<g id="graph0" class="graph" transform="scale(1 1) rotate(0) translate(4 80)">
<title>photo_driver</title>
<polygon fill="white" stroke="none" points="-4,4 -4,-80 158,-80 158,4 -4,4"/>
<!-- Node1 -->
<g id="node1" class="node"><title>Node1</title>
<polygon fill="#bfbfbf" stroke="black" points="36,-56.5 36,-75.5 106,-75.5 106,-56.5 36,-56.5"/>
<text text-anchor="middle" x="71" y="-63.5" font-family="Helvetica,sans-Serif" font-size="10.00">photo_driver</text>
</g>
<!-- Node2 -->
<g id="node2" class="node"><title>Node2</title>
<g id="a_node2"><a xlink:href="classphoto__gd.html" target="_top" xlink:title="photo_gd">
<polygon fill="white" stroke="black" points="0,-0.5 0,-19.5 56,-19.5 56,-0.5 0,-0.5"/>
<text text-anchor="middle" x="28" y="-7.5" font-family="Helvetica,sans-Serif" font-size="10.00">photo_gd</text>
</a>
</g>
</g>
<!-- Node1&#45;&gt;Node2 -->
<g id="edge1" class="edge"><title>Node1&#45;&gt;Node2</title>
<path fill="none" stroke="midnightblue" d="M57.5776,-48.144C50.0858,-38.7357 41.0629,-27.4046 34.9685,-19.7511"/>
<polygon fill="midnightblue" stroke="midnightblue" points="54.9321,-50.4404 63.8994,-56.083 60.4081,-46.0799 54.9321,-50.4404"/>
</g>
<!-- Node3 -->
<g id="node3" class="node"><title>Node3</title>
<g id="a_node3"><a xlink:href="classphoto__imagick.html" target="_top" xlink:title="photo_imagick">
<polygon fill="white" stroke="black" points="74,-0.5 74,-19.5 154,-19.5 154,-0.5 74,-0.5"/>
<text text-anchor="middle" x="114" y="-7.5" font-family="Helvetica,sans-Serif" font-size="10.00">photo_imagick</text>
</a>
</g>
</g>
<!-- Node1&#45;&gt;Node3 -->
<g id="edge2" class="edge"><title>Node1&#45;&gt;Node3</title>
<path fill="none" stroke="midnightblue" d="M84.4224,-48.144C91.9142,-38.7357 100.937,-27.4046 107.032,-19.7511"/>
<polygon fill="midnightblue" stroke="midnightblue" points="81.5919,-46.0799 78.1006,-56.083 87.0679,-50.4404 81.5919,-46.0799"/>
</g>
</g>
</svg>
