<?xml version="1.0" encoding="UTF-8" standalone="no"?>
<!DOCTYPE svg PUBLIC "-//W3C//DTD SVG 1.1//EN"
 "http://www.w3.org/Graphics/SVG/1.1/DTD/svg11.dtd">
<!-- Generated by graphviz version 2.36.0 (20140111.2315)
 -->
<!-- Title: Zotlabs\Storage\File Pages: 1 -->
<svg width="190pt" height="84pt"
 viewBox="0.00 0.00 190.00 84.00" xmlns="http://www.w3.org/2000/svg" xmlns:xlink="http://www.w3.org/1999/xlink">
<g id="graph0" class="graph" transform="scale(1 1) rotate(0) translate(4 80)">
<title>Zotlabs\Storage\File</title>
<polygon fill="white" stroke="none" points="-4,4 -4,-80 186,-80 186,4 -4,4"/>
<!-- Node1 -->
<g id="node1" class="node"><title>Node1</title>
<polygon fill="#bfbfbf" stroke="black" points="0,-0.5 0,-19.5 104,-19.5 104,-0.5 0,-0.5"/>
<text text-anchor="middle" x="52" y="-7.5" font-family="Helvetica,sans-Serif" font-size="10.00">Zotlabs\Storage\File</text>
</g>
<!-- Node2 -->
<g id="node2" class="node"><title>Node2</title>
<polygon fill="white" stroke="#bfbfbf" points="2,-56.5 2,-75.5 44,-75.5 44,-56.5 2,-56.5"/>
<text text-anchor="middle" x="23" y="-63.5" font-family="Helvetica,sans-Serif" font-size="10.00">Sabre</text>
</g>
<!-- Node2&#45;&gt;Node1 -->
<g id="edge1" class="edge"><title>Node2&#45;&gt;Node1</title>
<path fill="none" stroke="midnightblue" d="M26.4042,-46.6897C30.5972,-37.589 36.709,-27.0141 42.1693,-19.7511"/>
<polygon fill="midnightblue" stroke="midnightblue" points="23.1104,-45.4994 22.6224,-56.083 29.6039,-48.1137 23.1104,-45.4994"/>
</g>
<!-- Node2&#45;&gt;Node1 -->
<g id="edge2" class="edge"><title>Node2&#45;&gt;Node1</title>
<path fill="none" stroke="midnightblue" d="M38.7214,-47.5656C44.5027,-38.2747 50.0151,-27.2484 52.4314,-19.7511"/>
<polygon fill="midnightblue" stroke="midnightblue" points="35.663,-45.84 32.9551,-56.083 41.4595,-49.7643 35.663,-45.84"/>
</g>
<!-- Node3 -->
<g id="node3" class="node"><title>Node3</title>
<polygon fill="white" stroke="#bfbfbf" points="62,-56.5 62,-75.5 102,-75.5 102,-56.5 62,-56.5"/>
<text text-anchor="middle" x="82" y="-63.5" font-family="Helvetica,sans-Serif" font-size="10.00">Node</text>
</g>
<!-- Node3&#45;&gt;Node1 -->
<g id="edge3" class="edge"><title>Node3&#45;&gt;Node1</title>
<path fill="none" stroke="midnightblue" d="M72.1526,-47.2747C67.0252,-38.0454 60.9835,-27.1703 56.8617,-19.7511"/>
<polygon fill="midnightblue" stroke="midnightblue" points="69.1301,-49.0412 77.0461,-56.083 75.2492,-45.6416 69.1301,-49.0412"/>
</g>
<!-- Node4 -->
<g id="node4" class="node"><title>Node4</title>
<polygon fill="white" stroke="#bfbfbf" points="120,-56.5 120,-75.5 182,-75.5 182,-56.5 120,-56.5"/>
<text text-anchor="middle" x="151" y="-63.5" font-family="Helvetica,sans-Serif" font-size="10.00">DAV::IFile</text>
</g>
<!-- Node4&#45;&gt;Node1 -->
<g id="edge4" class="edge"><title>Node4&#45;&gt;Node1</title>
<path fill="none" stroke="midnightblue" d="M126.163,-51.4526C107.886,-41.4835 83.5844,-28.2279 67.8666,-19.6545"/>
<polygon fill="midnightblue" stroke="midnightblue" points="124.639,-54.608 135.094,-56.324 127.991,-48.4628 124.639,-54.608"/>
</g>
</g>
</svg>
