<?xml version="1.0" encoding="UTF-8" standalone="no"?>
<!DOCTYPE svg PUBLIC "-//W3C//DTD SVG 1.1//EN"
 "http://www.w3.org/Graphics/SVG/1.1/DTD/svg11.dtd">
<!-- Generated by graphviz version 2.36.0 (20140111.2315)
 -->
<!-- Title: dba_driver Pages: 1 -->
<svg width="320pt" height="84pt"
 viewBox="0.00 0.00 320.00 84.00" xmlns="http://www.w3.org/2000/svg" xmlns:xlink="http://www.w3.org/1999/xlink">
<g id="graph0" class="graph" transform="scale(1 1) rotate(0) translate(4 80)">
<title>dba_driver</title>
<polygon fill="white" stroke="none" points="-4,4 -4,-80 316,-80 316,4 -4,4"/>
<!-- Node1 -->
<g id="node1" class="node"><title>Node1</title>
<polygon fill="#bfbfbf" stroke="black" points="123,-56.5 123,-75.5 185,-75.5 185,-56.5 123,-56.5"/>
<text text-anchor="middle" x="154" y="-63.5" font-family="Helvetica,sans-Serif" font-size="10.00">dba_driver</text>
</g>
<!-- Node2 -->
<g id="node2" class="node"><title>Node2</title>
<g id="a_node2"><a xlink:href="classdba__mysql.html" target="_top" xlink:title="dba_mysql">
<polygon fill="white" stroke="black" points="0,-0.5 0,-19.5 64,-19.5 64,-0.5 0,-0.5"/>
<text text-anchor="middle" x="32" y="-7.5" font-family="Helvetica,sans-Serif" font-size="10.00">dba_mysql</text>
</a>
</g>
</g>
<!-- Node1&#45;&gt;Node2 -->
<g id="edge1" class="edge"><title>Node1&#45;&gt;Node2</title>
<path fill="none" stroke="midnightblue" d="M125.461,-52.3678C102.614,-42.2553 71.1949,-28.3486 51.2408,-19.5164"/>
<polygon fill="midnightblue" stroke="midnightblue" points="124.108,-55.5965 134.669,-56.4435 126.941,-49.1955 124.108,-55.5965"/>
</g>
<!-- Node3 -->
<g id="node3" class="node"><title>Node3</title>
<g id="a_node3"><a xlink:href="classdba__mysqli.html" target="_top" xlink:title="dba_mysqli">
<polygon fill="white" stroke="black" points="82,-0.5 82,-19.5 148,-19.5 148,-0.5 82,-0.5"/>
<text text-anchor="middle" x="115" y="-7.5" font-family="Helvetica,sans-Serif" font-size="10.00">dba_mysqli</text>
</a>
</g>
</g>
<!-- Node1&#45;&gt;Node3 -->
<g id="edge2" class="edge"><title>Node1&#45;&gt;Node3</title>
<path fill="none" stroke="midnightblue" d="M141.618,-47.8554C134.865,-38.5048 126.791,-27.3265 121.32,-19.7511"/>
<polygon fill="midnightblue" stroke="midnightblue" points="138.868,-50.0254 147.56,-56.083 144.542,-45.927 138.868,-50.0254"/>
</g>
<!-- Node4 -->
<g id="node4" class="node"><title>Node4</title>
<g id="a_node4"><a xlink:href="classdba__pdo.html" target="_top" xlink:title="dba_pdo">
<polygon fill="white" stroke="black" points="166.5,-0.5 166.5,-19.5 219.5,-19.5 219.5,-0.5 166.5,-0.5"/>
<text text-anchor="middle" x="193" y="-7.5" font-family="Helvetica,sans-Serif" font-size="10.00">dba_pdo</text>
</a>
</g>
</g>
<!-- Node1&#45;&gt;Node4 -->
<g id="edge3" class="edge"><title>Node1&#45;&gt;Node4</title>
<path fill="none" stroke="midnightblue" d="M166.382,-47.8554C173.135,-38.5048 181.209,-27.3265 186.68,-19.7511"/>
<polygon fill="midnightblue" stroke="midnightblue" points="163.458,-45.927 160.44,-56.083 169.132,-50.0254 163.458,-45.927"/>
</g>
<!-- Node5 -->
<g id="node5" class="node"><title>Node5</title>
<g id="a_node5"><a xlink:href="classdba__postgres.html" target="_top" xlink:title="dba_postgres">
<polygon fill="white" stroke="black" points="237.5,-0.5 237.5,-19.5 312.5,-19.5 312.5,-0.5 237.5,-0.5"/>
<text text-anchor="middle" x="275" y="-7.5" font-family="Helvetica,sans-Serif" font-size="10.00">dba_postgres</text>
</a>
</g>
</g>
<!-- Node1&#45;&gt;Node5 -->
<g id="edge4" class="edge"><title>Node1&#45;&gt;Node5</title>
<path fill="none" stroke="midnightblue" d="M182.306,-52.3678C204.965,-42.2553 236.126,-28.3486 255.917,-19.5164"/>
<polygon fill="midnightblue" stroke="midnightblue" points="180.878,-49.1719 173.173,-56.4435 183.731,-55.5643 180.878,-49.1719"/>
</g>
</g>
</svg>
