<?xml version="1.0" encoding="UTF-8" standalone="no"?>
<!DOCTYPE svg PUBLIC "-//W3C//DTD SVG 1.1//EN"
 "http://www.w3.org/Graphics/SVG/1.1/DTD/svg11.dtd">
<!-- Generated by graphviz version 2.36.0 (20140111.2315)
 -->
<!-- Title: include Pages: 1 -->
<svg width="310pt" height="76pt"
 viewBox="0.00 0.00 310.00 76.00" xmlns="http://www.w3.org/2000/svg" xmlns:xlink="http://www.w3.org/1999/xlink">
<g id="graph0" class="graph" transform="scale(1 1) rotate(0) translate(4 72)">
<title>include</title>
<polygon fill="white" stroke="none" points="-4,4 -4,-72 306,-72 306,4 -4,4"/>
<g id="clust1" class="cluster"><title>clusterdir_d44c64559bbebec7f509842c48db8b23</title>
<g id="a_clust1"><a xlink:href="dir_d44c64559bbebec7f509842c48db8b23.html" target="_top">
<polygon fill="#eeeeff" stroke="black" points="8,-8 8,-60 294,-60 294,-8 8,-8"/>
</a>
</g>
</g>
<!-- dir_d44c64559bbebec7f509842c48db8b23 -->
<g id="node1" class="node"><title>dir_d44c64559bbebec7f509842c48db8b23</title>
<text text-anchor="middle" x="259" y="-31.5" font-family="Helvetica,sans-Serif" font-size="10.00">include</text>
</g>
<!-- dir_21bc5169ff11430004758be31dcfc6c4 -->
<g id="node2" class="node"><title>dir_21bc5169ff11430004758be31dcfc6c4</title>
<g id="a_node2"><a xlink:href="dir_21bc5169ff11430004758be31dcfc6c4.html" target="_top" xlink:title="dba">
<polygon fill="white" stroke="black" points="214,-52 160,-52 160,-16 214,-16 214,-52"/>
<text text-anchor="middle" x="187" y="-31.5" font-family="Helvetica,sans-Serif" font-size="10.00">dba</text>
</a>
</g>
</g>
<!-- dir_7edbbd0f8c514efef79942dcdc21f738 -->
<g id="node3" class="node"><title>dir_7edbbd0f8c514efef79942dcdc21f738</title>
<g id="a_node3"><a xlink:href="dir_7edbbd0f8c514efef79942dcdc21f738.html" target="_top" xlink:title="Import">
<polygon fill="white" stroke="black" points="142,-52 88,-52 88,-16 142,-16 142,-52"/>
<text text-anchor="middle" x="115" y="-31.5" font-family="Helvetica,sans-Serif" font-size="10.00">Import</text>
</a>
</g>
</g>
<!-- dir_aae29906d7bfc07d076125f669c8352e -->
<g id="node4" class="node"><title>dir_aae29906d7bfc07d076125f669c8352e</title>
<g id="a_node4"><a xlink:href="dir_aae29906d7bfc07d076125f669c8352e.html" target="_top" xlink:title="photo">
<polygon fill="white" stroke="black" points="70,-52 16,-52 16,-16 70,-16 70,-52"/>
<text text-anchor="middle" x="43" y="-31.5" font-family="Helvetica,sans-Serif" font-size="10.00">photo</text>
</a>
</g>
</g>
</g>
</svg>
