<?xml version="1.0" encoding="UTF-8" standalone="no"?>
<!DOCTYPE svg PUBLIC "-//W3C//DTD SVG 1.1//EN"
 "http://www.w3.org/Graphics/SVG/1.1/DTD/svg11.dtd">
<!-- Generated by graphviz version 2.36.0 (20140111.2315)
 -->
<!-- Title: Zotlabs/Module Pages: 1 -->
<svg width="254pt" height="111pt"
 viewBox="0.00 0.00 254.00 111.00" xmlns="http://www.w3.org/2000/svg" xmlns:xlink="http://www.w3.org/1999/xlink">
<g id="graph0" class="graph" transform="scale(1 1) rotate(0) translate(4 107)">
<title>Zotlabs/Module</title>
<polygon fill="white" stroke="none" points="-4,4 -4,-107 250,-107 250,4 -4,4"/>
<g id="clust1" class="cluster"><title>clusterdir_a376ef41df9e23f180213c160564949a</title>
<g id="a_clust1"><a xlink:href="dir_a376ef41df9e23f180213c160564949a.html" target="_top" xlink:title="Zotlabs">
<polygon fill="#ddddee" stroke="black" points="8,-8 8,-95 238,-95 238,-8 8,-8"/>
<text text-anchor="middle" x="123" y="-83" font-family="Helvetica,sans-Serif" font-size="10.00">Zotlabs</text>
</a>
</g>
</g>
<g id="clust2" class="cluster"><title>clusterdir_8807fcfb4e05c9dab18186208756a660</title>
<g id="a_clust2"><a xlink:href="dir_8807fcfb4e05c9dab18186208756a660.html" target="_top">
<polygon fill="#eeeeff" stroke="black" points="16,-16 16,-68 230,-68 230,-16 16,-16"/>
</a>
</g>
</g>
<!-- dir_8807fcfb4e05c9dab18186208756a660 -->
<g id="node1" class="node"><title>dir_8807fcfb4e05c9dab18186208756a660</title>
<text text-anchor="middle" x="195" y="-39.5" font-family="Helvetica,sans-Serif" font-size="10.00">Module</text>
</g>
<!-- dir_45c42f8891dc4676db96d2ebb67a0559 -->
<g id="node2" class="node"><title>dir_45c42f8891dc4676db96d2ebb67a0559</title>
<g id="a_node2"><a xlink:href="dir_45c42f8891dc4676db96d2ebb67a0559.html" target="_top" xlink:title="Admin">
<polygon fill="white" stroke="black" points="150,-60 96,-60 96,-24 150,-24 150,-60"/>
<text text-anchor="middle" x="123" y="-39.5" font-family="Helvetica,sans-Serif" font-size="10.00">Admin</text>
</a>
</g>
</g>
<!-- dir_98bf7f88c35269e94b90732d3c4f35b0 -->
<g id="node3" class="node"><title>dir_98bf7f88c35269e94b90732d3c4f35b0</title>
<g id="a_node3"><a xlink:href="dir_98bf7f88c35269e94b90732d3c4f35b0.html" target="_top" xlink:title="Settings">
<polygon fill="white" stroke="black" points="78,-60 24,-60 24,-24 78,-24 78,-60"/>
<text text-anchor="middle" x="51" y="-39.5" font-family="Helvetica,sans-Serif" font-size="10.00">Settings</text>
</a>
</g>
</g>
</g>
</svg>
