<?xml version="1.0" encoding="UTF-8" standalone="no"?>
<!DOCTYPE svg PUBLIC "-//W3C//DTD SVG 1.1//EN"
 "http://www.w3.org/Graphics/SVG/1.1/DTD/svg11.dtd">
<!-- Generated by graphviz version 2.36.0 (20140111.2315)
 -->
<!-- Title: Graphical Class Hierarchy Pages: 1 -->
<svg width="360pt" height="66pt"
 viewBox="0.00 0.00 360.00 66.00" xmlns="http://www.w3.org/2000/svg" xmlns:xlink="http://www.w3.org/1999/xlink">
<g id="graph0" class="graph" transform="scale(1 1) rotate(0) translate(4 62)">
<title>Graphical Class Hierarchy</title>
<polygon fill="white" stroke="none" points="-4,4 -4,-62 356,-62 356,4 -4,4"/>
<!-- Node1 -->
<g id="node1" class="node"><title>Node1</title>
<g id="a_node1"><a xlink:href="interfaceZotlabs_1_1Render_1_1TemplateEngine.html" target="_top" xlink:title="Interface for template engines. ">
<polygon fill="white" stroke="black" points="0.5,-19.5 0.5,-38.5 157.5,-38.5 157.5,-19.5 0.5,-19.5"/>
<text text-anchor="middle" x="79" y="-26.5" font-family="Helvetica,sans-Serif" font-size="10.00">Zotlabs\Render\TemplateEngine</text>
</a>
</g>
</g>
<!-- Node2 -->
<g id="node2" class="node"><title>Node2</title>
<g id="a_node2"><a xlink:href="classZotlabs_1_1Render_1_1SimpleTemplate.html" target="_top" xlink:title="Zotlabs\\Render\\SimpleTemplate">
<polygon fill="white" stroke="black" points="194.5,-38.5 194.5,-57.5 351.5,-57.5 351.5,-38.5 194.5,-38.5"/>
<text text-anchor="middle" x="273" y="-45.5" font-family="Helvetica,sans-Serif" font-size="10.00">Zotlabs\Render\SimpleTemplate</text>
</a>
</g>
</g>
<!-- Node1&#45;&gt;Node2 -->
<g id="edge1" class="edge"><title>Node1&#45;&gt;Node2</title>
<path fill="none" stroke="midnightblue" d="M167.605,-37.6692C176.571,-38.5565 185.635,-39.4535 194.482,-40.329"/>
<polygon fill="midnightblue" stroke="midnightblue" points="167.836,-34.1751 157.54,-36.6733 167.147,-41.1411 167.836,-34.1751"/>
</g>
<!-- Node3 -->
<g id="node3" class="node"><title>Node3</title>
<g id="a_node3"><a xlink:href="classZotlabs_1_1Render_1_1SmartyTemplate.html" target="_top" xlink:title="Zotlabs\\Render\\SmartyTemplate">
<polygon fill="white" stroke="black" points="194,-0.5 194,-19.5 352,-19.5 352,-0.5 194,-0.5"/>
<text text-anchor="middle" x="273" y="-7.5" font-family="Helvetica,sans-Serif" font-size="10.00">Zotlabs\Render\SmartyTemplate</text>
</a>
</g>
</g>
<!-- Node1&#45;&gt;Node3 -->
<g id="edge2" class="edge"><title>Node1&#45;&gt;Node3</title>
<path fill="none" stroke="midnightblue" d="M167.716,-20.3198C176.435,-19.457 185.246,-18.5851 193.858,-17.7328"/>
<polygon fill="midnightblue" stroke="midnightblue" points="167.147,-16.8589 157.54,-21.3267 167.836,-23.8249 167.147,-16.8589"/>
</g>
</g>
</svg>
