<?xml version="1.0" encoding="UTF-8" standalone="no"?>
<!DOCTYPE svg PUBLIC "-//W3C//DTD SVG 1.1//EN"
 "http://www.w3.org/Graphics/SVG/1.1/DTD/svg11.dtd">
<!-- Generated by graphviz version 2.36.0 (20140111.2315)
 -->
<!-- Title: Graphical Class Hierarchy Pages: 1 -->
<svg width="256pt" height="294pt"
 viewBox="0.00 0.00 256.00 294.00" xmlns="http://www.w3.org/2000/svg" xmlns:xlink="http://www.w3.org/1999/xlink">
<g id="graph0" class="graph" transform="scale(1 1) rotate(0) translate(4 290)">
<title>Graphical Class Hierarchy</title>
<polygon fill="white" stroke="none" points="-4,4 -4,-290 252,-290 252,4 -4,4"/>
<!-- Node1 -->
<g id="node1" class="node"><title>Node1</title>
<polygon fill="white" stroke="#bfbfbf" points="0,-266.5 0,-285.5 78,-285.5 78,-266.5 0,-266.5"/>
<text text-anchor="middle" x="39" y="-273.5" font-family="Helvetica,sans-Serif" font-size="10.00">AbstractBasic</text>
</g>
<!-- Node2 -->
<g id="node2" class="node"><title>Node2</title>
<g id="a_node2"><a xlink:href="classZotlabs_1_1Storage_1_1BasicAuth.html" target="_top" xlink:title="Authentication backend class for DAV. ">
<polygon fill="white" stroke="black" points="114,-228.5 114,-247.5 248,-247.5 248,-228.5 114,-228.5"/>
<text text-anchor="middle" x="181" y="-235.5" font-family="Helvetica,sans-Serif" font-size="10.00">Zotlabs\Storage\BasicAuth</text>
</a>
</g>
</g>
<!-- Node1&#45;&gt;Node2 -->
<g id="edge1" class="edge"><title>Node1&#45;&gt;Node2</title>
<path fill="none" stroke="midnightblue" d="M85.1176,-263.754C104.415,-258.516 126.612,-252.491 144.683,-247.586"/>
<polygon fill="midnightblue" stroke="midnightblue" points="84.0619,-260.414 75.3279,-266.411 85.8956,-267.169 84.0619,-260.414"/>
</g>
<!-- Node3 -->
<g id="node3" class="node"><title>Node3</title>
<polygon fill="white" stroke="#bfbfbf" points="7.5,-228.5 7.5,-247.5 70.5,-247.5 70.5,-228.5 7.5,-228.5"/>
<text text-anchor="middle" x="39" y="-235.5" font-family="Helvetica,sans-Serif" font-size="10.00">ICollection</text>
</g>
<!-- Node4 -->
<g id="node4" class="node"><title>Node4</title>
<g id="a_node4"><a xlink:href="classZotlabs_1_1Storage_1_1Directory.html" target="_top" xlink:title="RedDirectory class. ">
<polygon fill="white" stroke="black" points="117,-152.5 117,-171.5 245,-171.5 245,-152.5 117,-152.5"/>
<text text-anchor="middle" x="181" y="-159.5" font-family="Helvetica,sans-Serif" font-size="10.00">Zotlabs\Storage\Directory</text>
</a>
</g>
</g>
<!-- Node3&#45;&gt;Node4 -->
<g id="edge2" class="edge"><title>Node3&#45;&gt;Node4</title>
<path fill="none" stroke="midnightblue" d="M68.911,-223.718C71.9895,-222.146 75.0661,-220.552 78,-219 108.483,-202.873 143.46,-183.029 163.521,-171.516"/>
<polygon fill="midnightblue" stroke="midnightblue" points="67.1621,-220.68 59.8107,-228.31 70.3153,-226.93 67.1621,-220.68"/>
</g>
<!-- Node5 -->
<g id="node5" class="node"><title>Node5</title>
<polygon fill="white" stroke="#bfbfbf" points="21.5,-38.5 21.5,-57.5 56.5,-57.5 56.5,-38.5 21.5,-38.5"/>
<text text-anchor="middle" x="39" y="-45.5" font-family="Helvetica,sans-Serif" font-size="10.00">IFile</text>
</g>
<!-- Node6 -->
<g id="node6" class="node"><title>Node6</title>
<g id="a_node6"><a xlink:href="classZotlabs_1_1Storage_1_1File.html" target="_top" xlink:title="This class represents a file in DAV. ">
<polygon fill="white" stroke="black" points="129,-76.5 129,-95.5 233,-95.5 233,-76.5 129,-76.5"/>
<text text-anchor="middle" x="181" y="-83.5" font-family="Helvetica,sans-Serif" font-size="10.00">Zotlabs\Storage\File</text>
</a>
</g>
</g>
<!-- Node5&#45;&gt;Node6 -->
<g id="edge3" class="edge"><title>Node5&#45;&gt;Node6</title>
<path fill="none" stroke="midnightblue" d="M66.3646,-55.1561C88.5874,-61.188 120.57,-69.869 144.947,-76.4857"/>
<polygon fill="midnightblue" stroke="midnightblue" points="67.1773,-51.7501 56.6096,-52.5083 65.3436,-58.5057 67.1773,-51.7501"/>
</g>
<!-- Node7 -->
<g id="node7" class="node"><title>Node7</title>
<polygon fill="white" stroke="#bfbfbf" points="3.5,-190.5 3.5,-209.5 74.5,-209.5 74.5,-190.5 3.5,-190.5"/>
<text text-anchor="middle" x="39" y="-197.5" font-family="Helvetica,sans-Serif" font-size="10.00">IMoveTarget</text>
</g>
<!-- Node7&#45;&gt;Node4 -->
<g id="edge4" class="edge"><title>Node7&#45;&gt;Node4</title>
<path fill="none" stroke="midnightblue" d="M84.4824,-187.926C103.975,-182.635 126.525,-176.515 144.819,-171.549"/>
<polygon fill="midnightblue" stroke="midnightblue" points="83.3407,-184.609 74.6068,-190.607 85.1744,-191.365 83.3407,-184.609"/>
</g>
<!-- Node8 -->
<g id="node8" class="node"><title>Node8</title>
<polygon fill="white" stroke="#bfbfbf" points="16,-152.5 16,-171.5 62,-171.5 62,-152.5 16,-152.5"/>
<text text-anchor="middle" x="39" y="-159.5" font-family="Helvetica,sans-Serif" font-size="10.00">IQuota</text>
</g>
<!-- Node8&#45;&gt;Node4 -->
<g id="edge5" class="edge"><title>Node8&#45;&gt;Node4</title>
<path fill="none" stroke="midnightblue" d="M72.2228,-162C85.5061,-162 101.38,-162 116.809,-162"/>
<polygon fill="midnightblue" stroke="midnightblue" points="72.1835,-158.5 62.1834,-162 72.1834,-165.5 72.1835,-158.5"/>
</g>
<!-- Node9 -->
<g id="node9" class="node"><title>Node9</title>
<polygon fill="white" stroke="#bfbfbf" points="19,-76.5 19,-95.5 59,-95.5 59,-76.5 19,-76.5"/>
<text text-anchor="middle" x="39" y="-83.5" font-family="Helvetica,sans-Serif" font-size="10.00">Node</text>
</g>
<!-- Node9&#45;&gt;Node4 -->
<g id="edge6" class="edge"><title>Node9&#45;&gt;Node4</title>
<path fill="none" stroke="midnightblue" d="M68.1992,-99.9186C71.5144,-101.608 74.84,-103.328 78,-105 108.483,-121.127 143.46,-140.971 163.521,-152.484"/>
<polygon fill="midnightblue" stroke="midnightblue" points="69.5354,-96.6728 59.0297,-95.301 66.3869,-102.925 69.5354,-96.6728"/>
</g>
<!-- Node9&#45;&gt;Node6 -->
<g id="edge7" class="edge"><title>Node9&#45;&gt;Node6</title>
<path fill="none" stroke="midnightblue" d="M69.1886,-86C86.4335,-86 108.757,-86 128.843,-86"/>
<polygon fill="midnightblue" stroke="midnightblue" points="69.1729,-82.5001 59.1729,-86 69.1728,-89.5001 69.1729,-82.5001"/>
</g>
<!-- Node10 -->
<g id="node10" class="node"><title>Node10</title>
<polygon fill="white" stroke="#bfbfbf" points="17,-0.5 17,-19.5 61,-19.5 61,-0.5 17,-0.5"/>
<text text-anchor="middle" x="39" y="-7.5" font-family="Helvetica,sans-Serif" font-size="10.00">Plugin</text>
</g>
<!-- Node11 -->
<g id="node11" class="node"><title>Node11</title>
<g id="a_node11"><a xlink:href="classZotlabs_1_1Storage_1_1Browser.html" target="_top" xlink:title="Provides a DAV frontend for the webbrowser. ">
<polygon fill="white" stroke="black" points="118.5,-19.5 118.5,-38.5 243.5,-38.5 243.5,-19.5 118.5,-19.5"/>
<text text-anchor="middle" x="181" y="-26.5" font-family="Helvetica,sans-Serif" font-size="10.00">Zotlabs\Storage\Browser</text>
</a>
</g>
</g>
<!-- Node10&#45;&gt;Node11 -->
<g id="edge8" class="edge"><title>Node10&#45;&gt;Node11</title>
<path fill="none" stroke="midnightblue" d="M71.2355,-14.2391C85.1102,-16.1221 101.952,-18.4078 118.198,-20.6125"/>
<polygon fill="midnightblue" stroke="midnightblue" points="71.6429,-10.7624 61.263,-12.8857 70.7014,-17.6988 71.6429,-10.7624"/>
</g>
<!-- Node12 -->
<g id="node12" class="node"><title>Node12</title>
<polygon fill="white" stroke="#bfbfbf" points="18,-114.5 18,-133.5 60,-133.5 60,-114.5 18,-114.5"/>
<text text-anchor="middle" x="39" y="-121.5" font-family="Helvetica,sans-Serif" font-size="10.00">Sabre</text>
</g>
<!-- Node12&#45;&gt;Node2 -->
<g id="edge9" class="edge"><title>Node12&#45;&gt;Node2</title>
<path fill="none" stroke="midnightblue" d="M68.9727,-137.135C72.1156,-138.952 75.1894,-140.916 78,-143 96.6876,-156.857 97.1754,-164.932 114,-181 132.176,-198.358 154.531,-217.172 168.003,-228.255"/>
<polygon fill="midnightblue" stroke="midnightblue" points="70.5676,-134.019 60.0932,-132.426 67.288,-140.203 70.5676,-134.019"/>
</g>
<!-- Node12&#45;&gt;Node4 -->
<g id="edge11" class="edge"><title>Node12&#45;&gt;Node4</title>
<path fill="none" stroke="midnightblue" d="M69.8307,-132.097C91.7839,-138.056 121.705,-146.177 144.825,-152.452"/>
<polygon fill="midnightblue" stroke="midnightblue" points="70.6263,-128.686 60.0586,-129.444 68.7926,-135.442 70.6263,-128.686"/>
</g>
<!-- Node12&#45;&gt;Node6 -->
<g id="edge12" class="edge"><title>Node12&#45;&gt;Node6</title>
<path fill="none" stroke="midnightblue" d="M69.8307,-115.903C91.7839,-109.944 121.705,-101.823 144.825,-95.5476"/>
<polygon fill="midnightblue" stroke="midnightblue" points="68.7926,-112.558 60.0586,-118.556 70.6263,-119.314 68.7926,-112.558"/>
</g>
<!-- Node12&#45;&gt;Node11 -->
<g id="edge10" class="edge"><title>Node12&#45;&gt;Node11</title>
<path fill="none" stroke="midnightblue" d="M68.9727,-110.865C72.1156,-109.048 75.1894,-107.084 78,-105 96.6876,-91.1433 95.7275,-81.3996 114,-67 128.331,-55.7065 146.39,-45.5464 159.994,-38.5796"/>
<polygon fill="midnightblue" stroke="midnightblue" points="67.288,-107.797 60.0932,-115.574 70.5676,-113.981 67.288,-107.797"/>
</g>
</g>
</svg>
