<?xml version="1.0" encoding="UTF-8" standalone="no"?>
<!DOCTYPE svg PUBLIC "-//W3C//DTD SVG 1.1//EN"
 "http://www.w3.org/Graphics/SVG/1.1/DTD/svg11.dtd">
<!-- Generated by graphviz version 2.36.0 (20140111.2315)
 -->
<!-- Title: Graphical Class Hierarchy Pages: 1 -->
<svg width="182pt" height="142pt"
 viewBox="0.00 0.00 182.00 142.00" xmlns="http://www.w3.org/2000/svg" xmlns:xlink="http://www.w3.org/1999/xlink">
<g id="graph0" class="graph" transform="scale(1 1) rotate(0) translate(4 138)">
<title>Graphical Class Hierarchy</title>
<polygon fill="white" stroke="none" points="-4,4 -4,-138 178,-138 178,4 -4,4"/>
<!-- Node1 -->
<g id="node1" class="node"><title>Node1</title>
<g id="a_node1"><a xlink:href="classdba__driver.html" target="_top" xlink:title="abstract database driver class. ">
<polygon fill="white" stroke="black" points="0,-57.5 0,-76.5 62,-76.5 62,-57.5 0,-57.5"/>
<text text-anchor="middle" x="31" y="-64.5" font-family="Helvetica,sans-Serif" font-size="10.00">dba_driver</text>
</a>
</g>
</g>
<!-- Node2 -->
<g id="node2" class="node"><title>Node2</title>
<g id="a_node2"><a xlink:href="classdba__mysql.html" target="_top" xlink:title="dba_mysql">
<polygon fill="white" stroke="black" points="104,-114.5 104,-133.5 168,-133.5 168,-114.5 104,-114.5"/>
<text text-anchor="middle" x="136" y="-121.5" font-family="Helvetica,sans-Serif" font-size="10.00">dba_mysql</text>
</a>
</g>
</g>
<!-- Node1&#45;&gt;Node2 -->
<g id="edge1" class="edge"><title>Node1&#45;&gt;Node2</title>
<path fill="none" stroke="midnightblue" d="M56.9324,-81.7318C69.219,-88.8949 84.3035,-97.546 98,-105 103.708,-108.107 109.976,-111.377 115.704,-114.313"/>
<polygon fill="midnightblue" stroke="midnightblue" points="58.5492,-78.6226 48.1514,-76.5886 55.0113,-84.6628 58.5492,-78.6226"/>
</g>
<!-- Node3 -->
<g id="node3" class="node"><title>Node3</title>
<g id="a_node3"><a xlink:href="classdba__mysqli.html" target="_top" xlink:title="dba_mysqli">
<polygon fill="white" stroke="black" points="103,-76.5 103,-95.5 169,-95.5 169,-76.5 103,-76.5"/>
<text text-anchor="middle" x="136" y="-83.5" font-family="Helvetica,sans-Serif" font-size="10.00">dba_mysqli</text>
</a>
</g>
</g>
<!-- Node1&#45;&gt;Node3 -->
<g id="edge2" class="edge"><title>Node1&#45;&gt;Node3</title>
<path fill="none" stroke="midnightblue" d="M72.0287,-74.3839C82.2651,-76.2722 93.1385,-78.278 102.918,-80.0819"/>
<polygon fill="midnightblue" stroke="midnightblue" points="72.5378,-70.9189 62.0688,-72.5467 71.2679,-77.8027 72.5378,-70.9189"/>
</g>
<!-- Node4 -->
<g id="node4" class="node"><title>Node4</title>
<g id="a_node4"><a xlink:href="classdba__pdo.html" target="_top" xlink:title="dba_pdo">
<polygon fill="white" stroke="black" points="109.5,-38.5 109.5,-57.5 162.5,-57.5 162.5,-38.5 109.5,-38.5"/>
<text text-anchor="middle" x="136" y="-45.5" font-family="Helvetica,sans-Serif" font-size="10.00">dba_pdo</text>
</a>
</g>
</g>
<!-- Node1&#45;&gt;Node4 -->
<g id="edge3" class="edge"><title>Node1&#45;&gt;Node4</title>
<path fill="none" stroke="midnightblue" d="M72.242,-59.5767C84.6927,-57.28 98.0665,-54.813 109.256,-52.7489"/>
<polygon fill="midnightblue" stroke="midnightblue" points="71.2679,-56.1973 62.0688,-61.4533 72.5378,-63.0811 71.2679,-56.1973"/>
</g>
<!-- Node5 -->
<g id="node5" class="node"><title>Node5</title>
<g id="a_node5"><a xlink:href="classdba__postgres.html" target="_top" xlink:title="dba_postgres">
<polygon fill="white" stroke="black" points="98.5,-0.5 98.5,-19.5 173.5,-19.5 173.5,-0.5 98.5,-0.5"/>
<text text-anchor="middle" x="136" y="-7.5" font-family="Helvetica,sans-Serif" font-size="10.00">dba_postgres</text>
</a>
</g>
</g>
<!-- Node1&#45;&gt;Node5 -->
<g id="edge4" class="edge"><title>Node1&#45;&gt;Node5</title>
<path fill="none" stroke="midnightblue" d="M56.9324,-52.2682C69.219,-45.1051 84.3035,-36.454 98,-29 103.708,-25.8934 109.976,-22.6227 115.704,-19.6874"/>
<polygon fill="midnightblue" stroke="midnightblue" points="55.0113,-49.3372 48.1514,-57.4114 58.5492,-55.3774 55.0113,-49.3372"/>
</g>
</g>
</svg>
