<?xml version="1.0" encoding="UTF-8" standalone="no"?>
<!DOCTYPE svg PUBLIC "-//W3C//DTD SVG 1.1//EN"
 "http://www.w3.org/Graphics/SVG/1.1/DTD/svg11.dtd">
<!-- Generated by graphviz version 2.36.0 (20140111.2315)
 -->
<!-- Title: Zotlabs\Render\TemplateEngine Pages: 1 -->
<svg width="341pt" height="84pt"
 viewBox="0.00 0.00 341.00 84.00" xmlns="http://www.w3.org/2000/svg" xmlns:xlink="http://www.w3.org/1999/xlink">
<g id="graph0" class="graph" transform="scale(1 1) rotate(0) translate(4 80)">
<title>Zotlabs\Render\TemplateEngine</title>
<polygon fill="white" stroke="none" points="-4,4 -4,-80 337,-80 337,4 -4,4"/>
<!-- Node1 -->
<g id="node1" class="node"><title>Node1</title>
<polygon fill="#bfbfbf" stroke="black" points="87.5,-56.5 87.5,-75.5 244.5,-75.5 244.5,-56.5 87.5,-56.5"/>
<text text-anchor="middle" x="166" y="-63.5" font-family="Helvetica,sans-Serif" font-size="10.00">Zotlabs\Render\TemplateEngine</text>
</g>
<!-- Node2 -->
<g id="node2" class="node"><title>Node2</title>
<g id="a_node2"><a xlink:href="classZotlabs_1_1Render_1_1SimpleTemplate.html" target="_top" xlink:title="Zotlabs\\Render\\SimpleTemplate">
<polygon fill="white" stroke="black" points="-0.5,-0.5 -0.5,-19.5 156.5,-19.5 156.5,-0.5 -0.5,-0.5"/>
<text text-anchor="middle" x="78" y="-7.5" font-family="Helvetica,sans-Serif" font-size="10.00">Zotlabs\Render\SimpleTemplate</text>
</a>
</g>
</g>
<!-- Node1&#45;&gt;Node2 -->
<g id="edge1" class="edge"><title>Node1&#45;&gt;Node2</title>
<path fill="none" stroke="midnightblue" d="M143.023,-50.9005C126.887,-40.9986 105.819,-28.0705 92.1036,-19.6545"/>
<polygon fill="midnightblue" stroke="midnightblue" points="141.507,-54.0769 151.861,-56.324 145.169,-48.1106 141.507,-54.0769"/>
</g>
<!-- Node3 -->
<g id="node3" class="node"><title>Node3</title>
<g id="a_node3"><a xlink:href="classZotlabs_1_1Render_1_1SmartyTemplate.html" target="_top" xlink:title="Zotlabs\\Render\\SmartyTemplate">
<polygon fill="white" stroke="black" points="175,-0.5 175,-19.5 333,-19.5 333,-0.5 175,-0.5"/>
<text text-anchor="middle" x="254" y="-7.5" font-family="Helvetica,sans-Serif" font-size="10.00">Zotlabs\Render\SmartyTemplate</text>
</a>
</g>
</g>
<!-- Node1&#45;&gt;Node3 -->
<g id="edge2" class="edge"><title>Node1&#45;&gt;Node3</title>
<path fill="none" stroke="midnightblue" d="M188.977,-50.9005C205.113,-40.9986 226.181,-28.0705 239.896,-19.6545"/>
<polygon fill="midnightblue" stroke="midnightblue" points="186.831,-48.1106 180.139,-56.324 190.493,-54.0769 186.831,-48.1106"/>
</g>
</g>
</svg>
